# xmcd
#
# Track frame offsets:
#	150
#	21401
#	40419
#	54914
#	75502
#	99361
#	117345
#	140526
#	157281
#	172744
#
# Disc length: 2508 seconds
#
# Revision: 1
# Processed by: cddbd v1.5.2PL0 Copyright (c) Steve Scherf et al.
# Submitted via: audiograbber 1.83.01
#
DISCID=7b09ca0a
DTITLE=Rob Parker - By Request ... From Me To You
DYEAR=1900
DGENRE=Country
TTITLE0=Night Life
TTITLE1=Walking Piece Of Heaven
TTITLE2=Deep Water
TTITLE3=Crazy
TTITLE4=White Walls
TTITLE5=Soft Rain
TTITLE6=I'd Love To Lay You Down
TTITLE7=Getting Over You Again
TTITLE8=The Other Woman
TTITLE9=My Weakness Is Too Strong
EXTD=
EXTT0=
EXTT1=
EXTT2=
EXTT3=
EXTT4=
EXTT5=
EXTT6=
EXTT7=
EXTT8=
EXTT9=
PLAYORDER=
